<svg width="75" height="75" viewBox="0 0 75 75" fill="none" xmlns="http://www.w3.org/2000/svg">
<mask id="mask0_66_121" style="mask-type:alpha" maskUnits="userSpaceOnUse" x="0" y="0" width="75" height="75">
<rect width="75" height="75" fill="#D9D9D9"/>
</mask>
<g mask="url(#mask0_66_121)">
<path d="M51.8262 39.884C49.4328 37.7278 47.1051 35.6105 44.8428 33.5323C42.5785 31.452 40.5754 29.4108 38.8335 27.4085C37.0895 25.4063 35.6972 23.4677 34.6566 21.5928C33.616 19.72 33.0957 17.9108 33.0957 16.1652C33.0957 13.2902 34.0843 10.8772 36.0614 8.92635C38.0385 6.97545 40.4838 6 43.3975 6C45.0624 6 46.6233 6.34603 48.0801 7.03808C49.5369 7.73219 50.7856 8.66965 51.8262 9.85046C52.8668 8.66965 54.1155 7.73219 55.5723 7.03808C57.0291 6.34603 58.59 6 60.2549 6C63.1685 6 65.6139 6.97545 67.591 8.92635C69.5681 10.8772 70.5566 13.2902 70.5566 16.1652C70.5566 17.9108 70.0364 19.72 68.9958 21.5928C67.9552 23.4677 66.5639 25.4063 64.822 27.4085C63.078 29.4108 61.0873 31.452 58.8501 33.5323C56.6129 35.6105 54.2715 37.7278 51.8262 39.884ZM51.8262 31.567C54.8959 28.692 57.745 25.8293 60.3735 22.979C62.9999 20.1307 64.3132 17.8594 64.3132 16.1652C64.3132 14.9844 63.9365 14.0213 63.1831 13.2758C62.4276 12.5324 61.4516 12.1607 60.2549 12.1607C59.5265 12.1607 58.8376 12.3014 58.1883 12.5827C57.5369 12.8661 56.9771 13.2902 56.5088 13.8549L51.8262 19.3996L47.1436 13.8549C46.6753 13.2902 46.1165 12.8661 45.4672 12.5827C44.8158 12.3014 44.1259 12.1607 43.3975 12.1607C42.2008 12.1607 41.2258 12.5324 40.4724 13.2758C39.7169 14.0213 39.3392 14.9844 39.3392 16.1652C39.3392 17.8594 40.6524 20.1307 43.2788 22.979C45.9073 25.8293 48.7565 28.692 51.8262 31.567ZM45.5827 69.1475L23.7305 63.1408V67.6073H5V33.7233H29.8179L49.1727 40.8081C50.8896 41.4242 52.282 42.5023 53.3496 44.0425C54.4151 45.5827 54.9479 47.2769 54.9479 49.1251H61.1914C63.7929 49.1251 66.0041 49.9722 67.8251 51.6664C69.6461 53.3606 70.5566 55.5939 70.5566 58.3662V61.4466L45.5827 69.1475ZM11.2435 61.4466H17.487V39.884H11.2435V61.4466ZM45.4266 62.6787L64.001 56.9801C63.8449 56.4153 63.4932 55.9913 62.9458 55.7079C62.4006 55.4265 61.8158 55.2859 61.1914 55.2859H46.207C44.5941 55.2859 43.1373 55.1832 41.8366 54.9778C40.5359 54.7725 39.1311 54.4131 37.6222 53.8997L32.2372 52.0515L34.0322 46.1988L40.2757 48.201C41.2122 48.5091 42.3049 48.7401 43.5536 48.8941C44.8022 49.0481 46.5192 49.1251 48.7044 49.1251C48.7044 48.5604 48.5359 48.0213 48.1987 47.5079C47.8595 46.9945 47.4557 46.6608 46.9875 46.5068L28.7253 39.884H23.7305V56.8261L45.4266 62.6787Z" fill="white"/>
</g>
</svg>
