<svg width="88" height="88" viewBox="0 0 88 88" fill="none" xmlns="http://www.w3.org/2000/svg">
<mask id="mask0_123_29" style="mask-type:alpha" maskUnits="userSpaceOnUse" x="0" y="0" width="88" height="88">
<rect width="88" height="88" fill="#D9D9D9"/>
</mask>
<g mask="url(#mask0_123_29)">
<path d="M43.6285 58.6002L48.7565 53.5401L42.8959 47.7573H58.2799V40.5287H42.8959L48.7565 34.7458L43.6285 29.6858L28.9771 44.143L43.6285 58.6002ZM43.6285 80.2859C38.5615 80.2859 33.7998 79.3366 29.3434 77.4379C24.8869 75.5416 21.0104 72.967 17.7138 69.7141C14.4173 66.4613 11.8081 62.6361 9.88632 58.2387C7.96211 53.8413 7 49.1427 7 44.143C7 39.1432 7.96211 34.4446 9.88632 30.0472C11.8081 25.6498 14.4173 21.8247 17.7138 18.5718C21.0104 15.319 24.8869 12.7432 29.3434 10.8445C33.7998 8.94815 38.5615 8 43.6285 8C48.6954 8 53.4571 8.94815 57.9136 10.8445C62.37 12.7432 66.2466 15.319 69.5431 18.5718C72.8397 21.8247 75.4488 25.6498 77.3706 30.0472C79.2948 34.4446 80.2569 39.1432 80.2569 44.143C80.2569 49.1427 79.2948 53.8413 77.3706 58.2387C75.4488 62.6361 72.8397 66.4613 69.5431 69.7141C66.2466 72.967 62.37 75.5416 57.9136 77.4379C53.4571 79.3366 48.6954 80.2859 43.6285 80.2859ZM43.6285 73.0573C51.8088 73.0573 58.7377 70.2563 64.4151 64.6541C70.0925 59.0519 72.9312 52.2149 72.9312 44.143C72.9312 36.071 70.0925 29.234 64.4151 23.6318C58.7377 18.0297 51.8088 15.2286 43.6285 15.2286C35.4481 15.2286 28.5192 18.0297 22.8418 23.6318C17.1644 29.234 14.3257 36.071 14.3257 44.143C14.3257 52.2149 17.1644 59.0519 22.8418 64.6541C28.5192 70.2563 35.4481 73.0573 43.6285 73.0573Z" fill="#0E0E0E"/>
<path d="M28.9514 9.92447L28.9518 9.92429C33.5378 7.97288 38.4333 7 43.6285 7C48.8236 7 53.7191 7.97288 58.3051 9.92429L58.3055 9.92447C62.8722 11.8701 66.8554 14.5148 70.2455 17.86C73.6357 21.2053 76.316 25.137 78.2868 29.6463C80.2686 34.1754 81.2569 39.0111 81.2569 44.143C81.2569 49.2749 80.2686 54.1105 78.2868 58.6396C76.316 63.149 73.6357 67.0807 70.2455 70.4259C66.8554 73.7711 62.8722 76.4146 58.3055 78.3578C53.7195 80.3118 48.8238 81.2859 43.6285 81.2859C38.4331 81.2859 33.5375 80.3118 28.9514 78.3578C24.3847 76.4146 20.4016 73.7711 17.0115 70.4259C13.6213 67.0807 10.941 63.149 8.97019 58.6396C6.98836 54.1105 6 49.2749 6 44.143C6 39.0112 6.9883 34.1757 8.97001 29.6468L28.9514 9.92447ZM28.9514 9.92447C24.3847 11.8701 20.4016 14.5148 17.0115 17.86C13.6213 21.2053 10.941 25.137 8.97019 29.6463L28.9514 9.92447ZM42.9261 59.312L43.6285 60.005L44.3308 59.312L49.4588 54.2519L50.1802 53.5401L49.4588 52.8283L45.3331 48.7573H58.2799H59.2799V47.7573V40.5287V39.5287H58.2799H45.3331L49.4588 35.4576L50.1802 34.7458L49.4588 34.034L44.3308 28.974L43.6285 28.2809L42.9261 28.974L28.2747 43.4312L27.5533 44.143L28.2747 44.8548L42.9261 59.312ZM63.7127 63.9423C58.2278 69.3546 51.5535 72.0573 43.6285 72.0573C35.7035 72.0573 29.0292 69.3546 23.5442 63.9423C18.0598 58.5306 15.3257 51.951 15.3257 44.143C15.3257 36.3349 18.0598 29.7554 23.5442 24.3436C29.0292 18.9314 35.7035 16.2286 43.6285 16.2286C51.5535 16.2286 58.2278 18.9314 63.7127 24.3436C69.1972 29.7554 71.9312 36.3349 71.9312 44.143C71.9312 51.951 69.1972 58.5306 63.7127 63.9423Z" stroke="#00FF00" stroke-opacity="0.2" stroke-width="2"/>
</g>
</svg>
