<svg width="75" height="75" viewBox="0 0 75 75" fill="none" xmlns="http://www.w3.org/2000/svg">
<mask id="mask0_66_106" style="mask-type:alpha" maskUnits="userSpaceOnUse" x="0" y="0" width="75" height="75">
<rect width="75" height="75" fill="#D9D9D9"/>
</mask>
<g mask="url(#mask0_66_106)">
<path d="M27.3153 71.7681C24.9219 71.7681 22.7763 71.152 20.8782 69.9199C18.9781 68.6877 17.5078 66.9935 16.4672 64.8372C15.6347 65.9154 14.5817 66.7491 13.308 67.3385C12.0322 67.9299 10.718 68.2257 9.36523 68.2257C6.71175 68.2257 4.48803 67.3272 2.69407 65.5303C0.898022 63.7335 0 61.5515 0 58.9846C0 56.777 0.728407 54.787 2.18522 53.0148C3.64204 51.2446 5.48907 50.2312 7.72632 49.9745C6.99791 48.9477 6.43912 47.8562 6.04994 46.7C5.65868 45.5459 5.46305 44.3271 5.46305 43.0437C5.46305 40.9901 5.99687 39.0648 7.06451 37.268C8.13006 35.4711 9.62538 34.0079 11.5505 32.8784C11.8106 33.8026 12.1613 34.7903 12.6025 35.8418C13.0458 36.8952 13.5536 37.807 14.1259 38.5771C13.3975 39.1419 12.8252 39.8216 12.4089 40.6163C11.9927 41.4131 11.7846 42.2479 11.7846 43.1207C11.7846 45.9957 12.9813 47.7669 15.3746 48.4343C17.7679 49.1017 20.0312 49.6408 22.1644 50.0515L23.6472 52.5158C23.0749 54.1586 22.5806 55.5582 22.1644 56.7143C21.7482 57.8684 21.54 58.9075 21.54 59.8317C21.54 61.3718 22.0999 62.72 23.2195 63.8762C24.3371 65.0303 25.7024 65.6073 27.3153 65.6073C29.2924 65.6073 30.9313 64.7346 32.232 62.989C33.5327 61.2435 34.5993 59.1899 35.4318 56.8283C36.2643 54.4667 36.9021 52.0794 37.3454 49.6664C37.7866 47.2535 38.1373 45.4053 38.3975 44.1218L44.4849 45.739C44.0166 48.0493 43.4443 50.6932 42.7679 53.6709C42.0915 56.6486 41.1425 59.4846 39.9209 62.1789C38.6972 64.8752 37.0842 67.1475 35.0822 68.9958C33.078 70.844 30.489 71.7681 27.3153 71.7681ZM9.36523 62.0649C10.2497 62.0649 10.9917 61.7692 11.591 61.1778C12.1883 60.5884 12.487 59.8573 12.487 58.9846C12.487 58.1118 12.1883 57.3797 11.591 56.7883C10.9917 56.1989 10.2497 55.9042 9.36523 55.9042C8.48074 55.9042 7.73985 56.1989 7.14255 56.7883C6.54318 57.3797 6.24349 58.1118 6.24349 58.9846C6.24349 59.8573 6.54318 60.5884 7.14255 61.1778C7.73985 61.7692 8.48074 62.0649 9.36523 62.0649ZM31.5296 49.8975C29.1363 47.7925 26.9646 45.8283 25.0145 44.0047C23.0624 42.1832 21.384 40.413 19.9792 38.6942C18.5744 36.9733 17.4953 35.2524 16.7419 33.5315C15.9865 31.8126 15.6087 30.0291 15.6087 28.1809C15.6087 24.8438 16.7669 22.0325 19.0832 19.7468C21.3975 17.4633 24.2456 16.3215 27.6274 16.3215C27.8356 16.3215 28.0177 16.3338 28.1737 16.3584C28.3298 16.3851 28.5119 16.3985 28.7201 16.3985C28.5119 15.8851 28.3559 15.3717 28.2518 14.8583C28.1477 14.3449 28.0957 13.8058 28.0957 13.2411C28.0957 10.6741 29.0062 8.4922 30.8272 6.69532C32.6482 4.89844 34.8595 4 37.4609 4C40.0624 4 42.2736 4.89844 44.0946 6.69532C45.9157 8.4922 46.8262 10.6741 46.8262 13.2411C46.8262 13.8058 46.7741 14.3316 46.6701 14.8182C46.566 15.307 46.4099 15.8081 46.2018 16.3215H47.2944C50.4162 16.3215 53.0697 17.3092 55.2549 19.2848C57.4401 21.2624 58.7408 23.7143 59.1571 26.6407C58.2205 26.4867 57.1675 26.4097 55.9979 26.4097C54.8262 26.4097 53.746 26.461 52.7575 26.5637C52.3933 25.3829 51.7304 24.4074 50.7689 23.6373C49.8054 22.8672 48.6472 22.4822 47.2944 22.4822C45.4734 22.4822 44.0561 23.0089 43.0426 24.0624C42.027 25.1139 40.6347 26.6407 38.8657 28.6429H35.9781C34.1571 26.538 32.7398 24.9845 31.7263 23.9823C30.7107 22.9822 29.3444 22.4822 27.6274 22.4822C25.9625 22.4822 24.5837 23.0213 23.4911 24.0994C22.3985 25.1775 21.8522 26.538 21.8522 28.1809C21.8522 29.3617 22.1904 30.5805 22.8668 31.8373C23.5432 33.0961 24.4932 34.4309 25.7169 35.8418C26.9386 37.2546 28.4214 38.7568 30.1654 40.3483C31.9074 41.9399 33.8449 43.6597 35.9781 45.5079L31.5296 49.8975ZM37.4609 16.3215C38.3454 16.3215 39.0874 16.0258 39.6867 15.4343C40.284 14.8449 40.5827 14.1139 40.5827 13.2411C40.5827 12.3683 40.284 11.6362 39.6867 11.0448C39.0874 10.4554 38.3454 10.1607 37.4609 10.1607C36.5764 10.1607 35.8355 10.4554 35.2383 11.0448C34.6389 11.6362 34.3392 12.3683 34.3392 13.2411C34.3392 14.1139 34.6389 14.8449 35.2383 15.4343C35.8355 16.0258 36.5764 16.3215 37.4609 16.3215ZM47.5286 71.7681C46.3839 71.7681 45.2528 71.6141 44.1352 71.306C43.0156 70.998 41.9354 70.5103 40.8949 69.8428C41.4672 69.1241 42.0395 68.277 42.6118 67.3015C43.1841 66.3261 43.7044 65.4277 44.1727 64.6062C44.745 64.9656 45.3173 65.2223 45.8896 65.3763C46.462 65.5303 47.0343 65.6073 47.6066 65.6073C49.2715 65.6073 50.6628 65.0303 51.7804 63.8762C52.9 62.72 53.4599 61.3462 53.4599 59.7546C53.4599 58.7792 53.2518 57.7267 52.8355 56.5973C52.4193 55.4678 51.925 54.0816 51.3527 52.4388L52.8355 49.9745C55.0208 49.5638 57.2976 49.0247 59.6659 48.3573C62.0322 47.6899 63.2153 45.9187 63.2153 43.0437C63.2153 40.9901 62.4484 39.5012 60.9146 38.5771C59.3787 37.653 57.7002 37.191 55.8792 37.191C53.694 37.191 51.1446 37.6017 48.231 38.4231C45.3173 39.2445 41.9094 40.297 38.0072 41.5805L36.3683 35.5738C40.4266 34.2903 44.0426 33.2121 47.2164 32.3394C50.3902 31.4666 53.3038 31.0302 55.9573 31.0302C59.5473 31.0302 62.695 32.0827 65.4006 34.1876C68.1061 36.2925 69.4588 39.2445 69.4588 43.0437C69.4588 44.3271 69.2632 45.5459 68.8719 46.7C68.4828 47.8562 67.924 48.9477 67.1956 49.9745C69.4328 50.2312 71.2798 51.2446 72.7367 53.0148C74.1935 54.787 74.9219 56.777 74.9219 58.9846C74.9219 61.5515 74.0249 63.7335 72.2309 65.5303C70.4349 67.3272 68.2101 68.2257 65.5566 68.2257C64.2039 68.2257 62.8907 67.9299 61.617 67.3385C60.3413 66.7491 59.2871 65.9154 58.4547 64.8372C57.4141 66.9935 55.9437 68.6877 54.0436 69.9199C52.1456 71.152 49.9739 71.7681 47.5286 71.7681ZM65.6347 62.0649C66.5192 62.0649 67.2476 61.7692 67.8199 61.1778C68.3922 60.5884 68.6784 59.8573 68.6784 58.9846C68.6784 58.1118 68.3787 57.3674 67.7793 56.7513C67.182 56.1352 66.4411 55.8272 65.5566 55.8272C64.6721 55.8272 63.9313 56.1229 63.334 56.7143C62.7346 57.3037 62.4349 58.0348 62.4349 58.9075C62.4349 59.7803 62.7471 60.5247 63.3714 61.1408C63.9958 61.7569 64.7502 62.0649 65.6347 62.0649Z" fill="white"/>
</g>
</svg>
