<svg width="75" height="75" viewBox="0 0 75 75" fill="none" xmlns="http://www.w3.org/2000/svg">
<mask id="mask0_66_88" style="mask-type:alpha" maskUnits="userSpaceOnUse" x="0" y="0" width="75" height="75">
<rect width="75" height="75" fill="#D9D9D9"/>
</mask>
<g mask="url(#mask0_66_88)">
<path d="M37.5348 73.9288C30.1467 73.9288 23.8772 71.3875 18.7263 66.3049C13.5754 61.2223 11 55.0359 11 47.7457V21.5626C11 19.4063 11.7544 17.5838 13.2633 16.0949C14.7721 14.6061 16.6191 13.8617 18.8044 13.8617C19.0645 13.8617 19.3247 13.874 19.5848 13.8986C19.8449 13.9253 20.1051 13.9643 20.3652 14.0157V12.3215C20.3652 10.1652 21.1197 8.34266 22.6285 6.85382C24.1373 5.36497 25.9844 4.62055 28.1696 4.62055C28.5338 4.62055 28.8855 4.64622 29.2247 4.69756C29.5619 4.7489 29.9126 4.82591 30.2768 4.92859C30.8491 3.43974 31.7856 2.24661 33.0863 1.3492C34.3871 0.449734 35.8699 0 37.5348 0C39.4599 0 41.1384 0.602725 42.5702 1.80818C44 3.01568 44.8709 4.51787 45.1831 6.31475C45.4432 6.26341 45.7169 6.22439 46.0041 6.1977C46.2892 6.17306 46.5879 6.16073 46.9001 6.16073C49.0853 6.16073 50.9323 6.90516 52.4412 8.394C53.95 9.88284 54.7044 11.7054 54.7044 13.8617V24.797C54.9646 24.7456 55.2247 24.7066 55.4849 24.6799C55.745 24.6553 56.0052 24.6429 56.2653 24.6429C58.4505 24.6429 60.2976 25.3874 61.8064 26.8762C63.3152 28.365 64.0697 30.1876 64.0697 32.3439V47.7457C64.0697 55.0359 61.4942 61.2223 56.3433 66.3049C51.1925 71.3875 44.923 73.9288 37.5348 73.9288ZM37.5348 67.7681C40.3444 67.7681 42.9854 67.2424 45.4578 66.1909C47.9282 65.1374 50.0738 63.7123 51.8949 61.9154C53.7159 60.1185 55.1602 58.0013 56.2278 55.5637C57.2934 53.124 57.8262 50.518 57.8262 47.7457V32.3439C57.8262 31.9331 57.6701 31.5738 57.3579 31.2657C57.0457 30.9577 56.6815 30.8037 56.2653 30.8037C55.8491 30.8037 55.4849 30.9577 55.1727 31.2657C54.8605 31.5738 54.7044 31.9331 54.7044 32.3439V46.2055L53.6118 46.2825C51.2705 46.5392 49.3069 47.5403 47.7211 49.2859C46.1332 51.0314 45.3392 53.085 45.3392 55.4466H39.0957C39.0957 52.2636 39.9542 49.4142 41.6711 46.8986C43.3881 44.383 45.6514 42.5347 48.4609 41.3539V13.8617C48.4609 13.4509 48.3048 13.0916 47.9927 12.7835C47.6805 12.4755 47.3163 12.3215 46.9001 12.3215C46.4838 12.3215 46.1196 12.4755 45.8075 12.7835C45.4953 13.0916 45.3392 13.4509 45.3392 13.8617V33.884H39.0957V7.70092C39.0957 7.2902 38.9396 6.93083 38.6274 6.62279C38.3153 6.31475 37.9511 6.16073 37.5348 6.16073C37.1186 6.16073 36.7544 6.31475 36.4422 6.62279C36.13 6.93083 35.974 7.2902 35.974 7.70092V33.884H29.7305V12.3215C29.7305 11.9108 29.5744 11.5514 29.2622 11.2433C28.95 10.9353 28.5858 10.7813 28.1696 10.7813C27.7534 10.7813 27.3892 10.9353 27.077 11.2433C26.7648 11.5514 26.6087 11.9108 26.6087 12.3215V36.9644H20.3652V21.5626C20.3652 21.1519 20.2091 20.7925 19.897 20.4844C19.5848 20.1764 19.2206 20.0224 18.8044 20.0224C18.3881 20.0224 18.0239 20.1764 17.7118 20.4844C17.3996 20.7925 17.2435 21.1519 17.2435 21.5626V47.7457C17.2435 50.518 17.7773 53.124 18.8449 55.5637C19.9105 58.0013 21.3538 60.1185 23.1748 61.9154C24.9958 63.7123 27.1425 65.1374 29.615 66.1909C32.0853 67.2424 34.7253 67.7681 37.5348 67.7681Z" fill="white"/>
</g>
</svg>
