<svg width="75" height="75" viewBox="0 0 75 75" fill="none" xmlns="http://www.w3.org/2000/svg">
<mask id="mask0_66_127" style="mask-type:alpha" maskUnits="userSpaceOnUse" x="0" y="0" width="75" height="75">
<rect width="75" height="75" fill="#D9D9D9"/>
</mask>
<g mask="url(#mask0_66_127)">
<path d="M34.0957 52.8037H21.6087C17.2903 52.8037 13.6098 51.3015 10.5671 48.2971C7.52237 45.2948 6 41.663 6 37.4018C6 33.1407 7.52237 29.5079 10.5671 26.5035C13.6098 23.5012 17.2903 22 21.6087 22H34.0957V28.1607H21.6087C19.0073 28.1607 16.796 29.0592 14.975 30.8561C13.154 32.6529 12.2435 34.8349 12.2435 37.4018C12.2435 39.9688 13.154 42.1507 14.975 43.9476C16.796 45.7445 19.0073 46.6429 21.6087 46.6429H34.0957V52.8037ZM24.7305 40.4822V34.3215H49.7044V40.4822H24.7305ZM40.3392 52.8037V46.6429H52.8262C55.4276 46.6429 57.6389 45.7445 59.4599 43.9476C61.2809 42.1507 62.1914 39.9688 62.1914 37.4018C62.1914 34.8349 61.2809 32.6529 59.4599 30.8561C57.6389 29.0592 55.4276 28.1607 52.8262 28.1607H40.3392V22H52.8262C57.1446 22 60.8262 23.5012 63.8709 26.5035C66.9136 29.5079 68.4349 33.1407 68.4349 37.4018C68.4349 41.663 66.9136 45.2948 63.8709 48.2971C60.8262 51.3015 57.1446 52.8037 52.8262 52.8037H40.3392Z" fill="white"/>
</g>
</svg>
