<svg width="84" height="84" viewBox="0 0 84 84" fill="none" xmlns="http://www.w3.org/2000/svg">
<path d="M31.583 60.7526L60.7497 42.0026L31.583 23.2526V60.7526ZM41.9997 83.6693C36.2358 83.6693 30.8191 82.5748 25.7497 80.3859C20.6802 78.1971 16.2705 75.229 12.5205 71.4818C8.77051 67.7318 5.80245 63.3221 3.61634 58.2526C1.43023 53.1832 0.335786 47.7665 0.333008 42.0026C0.333008 36.2387 1.42745 30.8221 3.61634 25.7526C5.80523 20.6832 8.77329 16.2734 12.5205 12.5234C16.2705 8.77344 20.6802 5.80538 25.7497 3.61927C30.8191 1.43316 36.2358 0.338715 41.9997 0.335938C47.7636 0.335938 53.1802 1.43038 58.2497 3.61927C63.3191 5.80816 67.7289 8.77622 71.4789 12.5234C75.2289 16.2734 78.1983 20.6832 80.3872 25.7526C82.5761 30.8221 83.6691 36.2387 83.6664 42.0026C83.6664 47.7665 82.5719 53.1832 80.383 58.2526C78.1941 63.3221 75.2261 67.7318 71.4789 71.4818C67.7289 75.2318 63.3191 78.2012 58.2497 80.3901C53.1802 82.579 47.7636 83.6721 41.9997 83.6693Z" fill="#FFFF00"/>
</svg>
