<svg width="75" height="75" viewBox="0 0 75 75" fill="none" xmlns="http://www.w3.org/2000/svg">
<mask id="mask0_66_98" style="mask-type:alpha" maskUnits="userSpaceOnUse" x="0" y="0" width="75" height="75">
<rect width="75" height="75" fill="#D9D9D9"/>
</mask>
<g mask="url(#mask0_66_98)">
<path d="M36.5692 5C41.3038 5 45.3486 6.62951 48.7034 9.88854C52.0603 13.1496 53.7388 17.1161 53.7388 21.788C53.7388 24.2523 53.1789 26.6776 52.0593 29.0638C50.9417 31.4521 49.2643 33.5191 47.027 35.2646H44.3735V29.3349C45.3101 28.3081 46.0645 27.1653 46.6368 25.9064C47.2091 24.6497 47.4953 23.2768 47.4953 21.788C47.4953 18.8616 46.4162 16.3583 44.258 14.2781C42.0978 12.1998 39.5348 11.1607 36.5692 11.1607C33.4995 11.1607 30.9105 12.1998 28.8023 14.2781C26.6961 16.3583 25.6431 18.8616 25.6431 21.788C25.6431 23.2768 25.9157 24.6887 26.461 26.0235C27.0083 27.3583 27.7763 28.5135 28.7648 29.4889V37.0358C25.9552 35.5983 23.692 33.5447 21.975 30.8751C20.2581 28.2054 19.3996 25.1764 19.3996 21.788C19.3996 17.1161 21.0645 13.1496 24.3944 9.88854C27.7242 6.62951 31.7825 5 36.5692 5ZM33.6035 69.6877C32.719 69.6877 31.8866 69.5203 31.1061 69.1856C30.3257 68.8529 29.6493 68.4042 29.077 67.8395L13 51.9756L17.3704 47.5091C18.0989 46.7903 18.9188 46.2379 19.8304 45.8518C20.7398 45.4678 21.6889 45.4041 22.6774 45.6608L28.7648 47.047V21.942C28.7648 19.7858 29.5192 17.9632 31.0281 16.4744C32.5369 14.9855 34.384 14.2411 36.5692 14.2411C38.7544 14.2411 40.6014 14.9855 42.1103 16.4744C43.6191 17.9632 44.3735 19.7858 44.3735 21.942V35.1876H46.4027C46.6628 35.1876 46.9094 35.2256 47.1425 35.3016C47.3777 35.3796 47.5993 35.4956 47.8075 35.6496L59.3579 41.1943C60.6066 41.759 61.5296 42.6698 62.1269 43.9266C62.7263 45.1854 62.8959 46.4823 62.6357 47.8171L59.8262 64.6051C59.566 66.0939 58.8376 67.3138 57.641 68.2646C56.4443 69.2133 55.0915 69.6877 53.5827 69.6877H33.6035ZM33.6035 63.527H53.5827L56.5483 46.739L43.5931 40.4242H38.13V21.942C38.13 21.48 37.9875 21.1072 37.7024 20.8238C37.4152 20.5425 37.0374 20.4018 36.5692 20.4018C36.1009 20.4018 35.7232 20.5425 35.436 20.8238C35.1509 21.1072 35.0083 21.48 35.0083 21.942V54.5939L21.7409 51.8216L33.6035 63.527Z" fill="white"/>
</g>
</svg>
